<?xml version="1.0" encoding="UTF-8" standalone="no"?>
<!-- Created with Inkscape (http://www.inkscape.org/) -->

<svg
   width="128.75539mm"
   height="134.97389mm"
   viewBox="0 0 128.75539 134.97389"
   version="1.1"
   id="svg5"
   inkscape:version="1.1 (ce6663b3b7, 2021-05-25)"
   sodipodi:docname="clock.svg"
   xmlns:inkscape="http://www.inkscape.org/namespaces/inkscape"
   xmlns:sodipodi="http://sodipodi.sourceforge.net/DTD/sodipodi-0.dtd"
   xmlns="http://www.w3.org/2000/svg"
   xmlns:svg="http://www.w3.org/2000/svg">
  <sodipodi:namedview
     id="namedview7"
     pagecolor="#ffffff"
     bordercolor="#999999"
     borderopacity="1"
     inkscape:pageshadow="0"
     inkscape:pageopacity="0"
     inkscape:pagecheckerboard="0"
     inkscape:document-units="mm"
     showgrid="false"
     inkscape:zoom="0.47433592"
     inkscape:cx="-72.733265"
     inkscape:cy="224.52443"
     inkscape:window-width="1856"
     inkscape:window-height="1016"
     inkscape:window-x="64"
     inkscape:window-y="27"
     inkscape:window-maximized="1"
     inkscape:current-layer="layer1"
     fit-margin-top="0"
     fit-margin-left="0"
     fit-margin-right="0"
     fit-margin-bottom="0" />
  <defs
     id="defs2" />
  <g
     inkscape:label="Layer 1"
     inkscape:groupmode="layer"
     id="layer1"
     transform="translate(-40.697735,-91.853246)">
    <path
       style="fill:#fff;stroke-width:0.204347"
       d="m 102.69603,226.48833 c -1.51071,-0.55638 -2.45279,-1.42449 -3.212948,-2.96071 -0.864136,-1.74634 -1.02473,-3.42232 -0.556935,-5.81227 0.622206,-3.17881 2.337093,-5.57136 4.970263,-6.93436 2.29056,-1.18564 4.98984,-1.43476 4.98984,-0.46051 0,0.33793 -0.40942,0.76132 -0.73621,0.76132 -0.13957,0 -0.77271,0.20065 -1.40698,0.4459 -1.44129,0.55729 -2.98262,2.00645 -3.61329,3.39722 -0.65335,1.44076 -0.61361,1.62857 0.23506,1.11109 1.60053,-0.97591 4.64519,-0.64703 6.18055,0.66763 2.02209,1.73142 2.49552,5.64173 0.95001,7.8466 -0.39272,0.56026 -1.01287,1.04733 -1.92319,1.51046 -1.14424,0.58215 -1.60085,0.69366 -3.07769,0.7516 -1.31856,0.0517 -1.98917,-0.0259 -2.79848,-0.32397 z m 3.7519,-2.34084 c 0.86097,-0.31017 1.63437,-1.68513 1.63396,-2.90486 -8.1e-4,-2.52867 -2.33361,-4.07654 -4.4096,-2.92594 -1.8565,1.02895 -1.9242,4.41546 -0.1129,5.64736 0.67563,0.45952 1.90544,0.53762 2.88854,0.18344 z m -34.045681,-5.42592 c -0.552787,-0.35145 -1.252695,-0.79264 -1.55535,-0.98042 l -0.550281,-0.34141 3.741508,-5.59987 c 2.05783,-3.07994 3.776507,-5.64 3.81928,-5.68904 0.152003,-0.17428 1.479671,0.60625 1.471045,0.86481 -0.01435,0.43023 -5.515272,12.27716 -5.726766,12.33332 -0.106901,0.0284 -0.646648,-0.23594 -1.199436,-0.58739 z m 61.027541,-5.57721 c -1.57982,-3.4358 -2.84116,-6.26853 -2.80297,-6.29497 0.62731,-0.43431 1.19994,-0.75327 1.35235,-0.75327 0.17194,0 7.6622,11.03092 7.6622,11.28414 0,0.0973 -3.11028,2.011 -3.26834,2.011 -0.039,0 -1.36343,-2.81111 -2.94324,-6.2469 z M 47.828312,193.52613 c -0.469869,-0.85064 -0.854308,-1.62772 -0.854308,-1.72684 0,-0.0991 2.645844,-1.47195 5.879653,-3.05073 3.23381,-1.57877 5.946103,-2.90665 6.027319,-2.95084 0.136647,-0.0743 0.955467,1.13548 0.957159,1.41422 10e-4,0.16136 -10.777733,7.87621 -10.991949,7.86748 -0.08996,-0.004 -0.548004,-0.70265 -1.017874,-1.55329 z m 108.798318,-1.58576 c -2.43205,-1.73014 -4.89113,-3.49119 -5.46462,-3.91345 l -1.04272,-0.76773 0.41262,-0.70869 c 0.22694,-0.38977 0.43402,-0.7338 0.46017,-0.76449 0.0262,-0.0307 1.30472,0.561 2.84126,1.31488 1.53653,0.75387 4.24099,2.08045 6.00991,2.94795 1.76892,0.86749 3.24075,1.59431 3.27073,1.61514 0.10106,0.0702 -1.78567,3.42211 -1.92625,3.42211 -0.0766,0 -2.12906,-1.41557 -4.5611,-3.14572 z M 42.220495,168.70495 c -0.549059,-0.22895 -0.775319,-0.60285 -0.522748,-0.86387 0.10807,-0.11168 0.864543,-0.34218 1.681051,-0.51222 1.799463,-0.37474 3.390606,-1.13647 4.465111,-2.13758 0.779658,-0.7264 1.528931,-2.06416 1.537846,-2.74569 0.0039,-0.29689 -0.09587,-0.2862 -0.829554,0.0889 -0.613542,0.31371 -1.237821,0.42856 -2.361912,0.43454 -3.442828,0.0183 -5.427595,-2.03856 -5.491496,-5.69102 -0.05989,-3.42337 2.426512,-5.60888 6.381103,-5.60888 3.308763,0 5.185304,1.2973 6.005571,4.15182 0.610127,2.12323 0.259179,5.60687 -0.787597,7.81796 -0.692359,1.46246 -2.460951,3.24997 -3.976545,4.01909 -1.984346,1.00699 -4.968461,1.51907 -6.10083,1.04691 z m 6.160708,-8.57052 c 1.360506,-0.95973 1.794866,-2.91816 1.002994,-4.52227 -0.495249,-1.00323 -1.282287,-1.4504 -2.550971,-1.44938 -1.800113,0.001 -2.875194,1.21752 -2.873678,3.25053 0.0019,2.49446 2.533964,4.05273 4.421655,2.72112 z m 112.132607,8.17079 c -1.38208,-0.55857 -2.09287,-1.15803 -2.56294,-2.16154 -0.74777,-1.59635 -0.4476,-3.29754 0.66732,-3.782 1.27508,-0.55407 2.16989,0.37062 1.97468,2.04061 -0.066,0.56452 0.009,0.9041 0.26514,1.19628 0.90752,1.03633 3.2484,1.03167 4.37512,-0.009 0.6119,-0.56502 0.64054,-0.66091 0.64054,-2.14472 0,-1.26112 -0.0755,-1.6395 -0.40156,-2.0118 -0.59796,-0.68285 -1.38547,-1.03834 -2.66652,-1.20372 -1.22513,-0.15815 -1.41575,-0.38649 -1.16939,-1.40086 0.0914,-0.37623 0.29904,-0.52357 0.87211,-0.61875 1.4355,-0.23844 1.62896,-0.31141 2.24429,-0.84648 0.79656,-0.69268 0.85914,-1.85058 0.14632,-2.707 -0.39543,-0.47509 -0.66506,-0.57971 -1.65836,-0.64347 -1.45711,-0.0935 -2.07822,0.21482 -2.39224,1.18764 -0.29153,0.90315 -0.92695,1.27036 -1.76726,1.0213 -0.7651,-0.22677 -0.93943,-0.50054 -0.94335,-1.48148 -0.002,-0.5668 0.15958,-0.96323 0.60933,-1.4926 0.94308,-1.11004 2.10929,-1.47487 4.71446,-1.47487 2.05481,0 2.29643,0.0441 3.41724,0.62321 1.49301,0.77147 2.11077,1.64701 2.11033,2.99096 -4e-4,1.53066 -0.50346,2.30751 -1.98791,3.07042 l -1.28466,0.66024 0.71955,0.1395 c 0.97876,0.18976 2.233,1.18439 2.65646,2.10659 0.53136,1.15722 0.46763,3.16282 -0.13923,4.38151 -0.59509,1.19505 -1.84298,2.21687 -3.22548,2.64116 -1.42702,0.43795 -4.02944,0.39732 -5.21399,-0.0814 z M 52.966513,129.88781 c -3.171739,-1.56448 -5.827029,-2.90676 -5.900642,-2.98284 -0.132649,-0.13708 1.396676,-3.17934 1.693557,-3.36896 0.112023,-0.0716 10.50694,7.15428 11.053239,7.68345 0.117539,0.11386 -0.659127,1.40273 -0.880185,1.46066 -0.109543,0.0287 -2.794231,-1.22783 -5.965969,-2.79231 z m 97.635267,2.26444 c -0.16867,-0.33709 -0.30668,-0.70379 -0.30668,-0.8149 0,-0.20823 10.8351,-8.01453 10.94782,-7.88752 0.22701,0.2558 1.91614,3.36116 1.85989,3.41929 -0.0384,0.0396 -2.3252,1.18175 -5.08188,2.53805 -2.75668,1.3563 -5.41358,2.66669 -5.90421,2.91198 -1.13375,0.56683 -1.14861,0.56519 -1.51494,-0.1669 z M 74.392073,107.26882 c -1.961095,-2.9439 -3.682902,-5.53241 -3.826237,-5.75225 -0.240003,-0.36811 -0.13,-0.47741 1.390941,-1.38206 0.908355,-0.540295 1.705662,-0.921311 1.771792,-0.846709 0.336987,0.380166 5.619413,12.166119 5.542441,12.366089 -0.04948,0.12856 -0.365222,0.39883 -0.701641,0.60061 l -0.611671,0.36687 z m 56.955947,4.94828 c -0.30487,-0.20198 -0.60383,-0.41842 -0.66436,-0.48097 -0.0605,-0.0626 0.5335,-1.50301 1.32006,-3.20103 0.78655,-1.69801 1.85333,-4.02211 2.37061,-5.16466 0.51728,-1.14255 1.16771,-2.5657 1.44541,-3.16256 l 0.5049,-1.085188 1.66422,0.971538 c 0.91532,0.53434 1.62507,1.07697 1.57721,1.20585 -0.0479,0.12888 -1.5204,2.38076 -3.27233,5.00418 -1.75193,2.62342 -3.41146,5.11585 -3.68786,5.53873 -0.57305,0.87678 -0.52203,0.8616 -1.25786,0.37411 z m -36.119807,-3.63968 c -0.131638,-0.16392 -0.210556,-0.60688 -0.175373,-0.98436 0.05757,-0.61771 0.140356,-0.69905 0.827992,-0.81353 0.420212,-0.07 0.851467,-0.21758 0.958344,-0.32803 0.117796,-0.12174 0.173141,-2.28144 0.140538,-5.48407 l -0.05378,-5.283244 -1.206083,-0.103868 c -1.201509,-0.103474 -1.20633,-0.106543 -1.271247,-0.809161 -0.07762,-0.840054 0.09588,-0.977629 1.454112,-1.153004 0.564111,-0.07284 1.386932,-0.358957 1.828491,-0.635819 0.441561,-0.276862 1.106009,-0.668752 1.476553,-0.870868 0.665004,-0.362731 0.678649,-0.361185 1.05532,0.119544 0.35721,0.455884 0.38161,0.916298 0.38161,7.200609 0,7.365941 8e-5,7.366471 1.19893,7.366471 0.59004,0 0.81121,0.30481 0.81121,1.11799 0,0.88471 -0.29845,0.95937 -3.834855,0.95937 -2.666859,0 -3.401363,-0.061 -3.591762,-0.29803 z m 8.630047,-0.0169 c -0.41237,-0.51349 -0.13945,-2.7329 0.49523,-4.02726 0.83327,-1.69938 2.16209,-3.00633 4.71872,-4.641063 1.27969,-0.818251 2.57547,-1.742053 2.8795,-2.052893 0.93869,-0.959698 0.65168,-2.589235 -0.56076,-3.183817 -1.21906,-0.59783 -3.73677,-0.276764 -4.23507,0.540068 -0.0942,0.154477 -0.18109,0.738462 -0.19301,1.297746 -0.0243,1.139814 -0.39049,1.579825 -1.31482,1.579825 -0.82151,0 -1.16806,-0.196321 -1.49306,-0.845803 -0.94212,-1.882803 0.54538,-4.310584 3.09388,-5.049571 2.54738,-0.738664 5.74076,-0.17697 7.3092,1.285639 1.03084,0.961285 1.36367,1.773026 1.36367,3.325923 0,2.034337 -0.81358,2.91248 -4.65374,5.023066 -2.40713,1.32298 -3.98986,2.74995 -3.98986,3.5972 v 0.55753 h 3.34761 3.3476 l 0.7423,-0.83094 c 0.40827,-0.45702 0.84665,-0.83095 0.9742,-0.83095 0.48671,0 0.12437,4.04225 -0.39267,4.38061 -0.154,0.10077 -2.73386,0.18466 -5.73302,0.18641 -4.62989,0.003 -5.49118,-0.0443 -5.7059,-0.31172 z"
       id="path149" />
  </g>
</svg>
