<?xml version="1.0" encoding="UTF-8" standalone="no"?>
<!-- Created with Inkscape (http://www.inkscape.org/) -->

<svg
   version="1.1"
   id="svg890"
   width="221.19319"
   height="220.95068"
   viewBox="0 0 221.19319 220.95068"
   sodipodi:docname="parrotLOGO.svg"
   inkscape:version="1.1 (ce6663b3b7, 2021-05-25)"
   xmlns:inkscape="http://www.inkscape.org/namespaces/inkscape"
   xmlns:sodipodi="http://sodipodi.sourceforge.net/DTD/sodipodi-0.dtd"
   xmlns="http://www.w3.org/2000/svg"
   xmlns:svg="http://www.w3.org/2000/svg">
  <defs
     id="defs894">
    <inkscape:path-effect
       effect="bend_path"
       id="path-effect3477"
       is_visible="true"
       lpeversion="1"
       bendpath="m 91.644955,164.34844 c 0,0 8.084984,-4.83888 6.457112,-30.09254 -1.627872,-25.25365 6.347613,-32.10557 6.347613,-32.10557"
       prop_scale="1"
       scale_y_rel="false"
       vertical="false"
       hide_knot="false" />
    <inkscape:path-effect
       effect="bend_path"
       id="path-effect3469"
       is_visible="true"
       lpeversion="1"
       bendpath="m 91.644955,164.34844 c 0,0 8.084984,-4.83888 6.457112,-30.09254 -1.627872,-25.25365 6.347613,-32.10557 6.347613,-32.10557"
       prop_scale="1"
       scale_y_rel="false"
       vertical="false"
       hide_knot="false" />
    <inkscape:perspective
       sodipodi:type="inkscape:persp3d"
       inkscape:vp_x="0 : 106.45068 : 1"
       inkscape:vp_y="0 : 999.99998 : 0"
       inkscape:vp_z="228 : 106.45068 : 1"
       inkscape:persp3d-origin="114 : 68.284015 : 1"
       id="perspective4580" />
  </defs>
  <sodipodi:namedview
     id="namedview892"
     pagecolor="#ffffff"
     bordercolor="#999999"
     borderopacity="1"
     inkscape:pageshadow="0"
     inkscape:pageopacity="0"
     inkscape:pagecheckerboard="0"
     showgrid="false"
     showborder="false"
     inkscape:zoom="2"
     inkscape:cx="35.75"
     inkscape:cy="116.25"
     inkscape:window-width="1856"
     inkscape:window-height="1016"
     inkscape:window-x="64"
     inkscape:window-y="27"
     inkscape:window-maximized="1"
     inkscape:current-layer="layer3"
     fit-margin-top="0"
     fit-margin-left="0"
     fit-margin-right="0"
     fit-margin-bottom="0" />
  <g
     inkscape:groupmode="layer"
     id="layer5"
     inkscape:label="Image 5"
     style="display:inline"
     transform="translate(149.99211,28.40746)" />
  <g
     inkscape:groupmode="layer"
     id="layer6"
     inkscape:label="Image 6"
     style="display:inline"
     transform="translate(149.99211,28.40746)" />
  <g
     inkscape:groupmode="layer"
     id="layer4"
     inkscape:label="Image 4"
     style="display:inline"
     transform="translate(149.99211,28.40746)" />
  <g
     inkscape:groupmode="layer"
     id="layer2"
     inkscape:label="Image 2"
     style="display:inline;opacity:1"
     transform="translate(149.99211,28.40746)" />
  <g
     inkscape:groupmode="layer"
     id="layer1"
     inkscape:label="Image 1"
     style="display:inline;opacity:1"
     transform="translate(149.99211,28.40746)" />
  <g
     inkscape:groupmode="layer"
     id="layer3"
     inkscape:label="Image 3"
     style="display:inline"
     transform="translate(149.99211,28.40746)">
    <g
       id="g35626"
       transform="translate(-19.235535,20.225372)">
      <g
         id="g34872"
         transform="translate(-158.02549,-43.638702)">
        <path
           style="display:inline;fill:#045a91;fill-opacity:1;stroke:none;stroke-width:1px;stroke-linecap:butt;stroke-linejoin:miter;stroke-opacity:1"
           d="m 125.24947,63.062111 c 0,0 17.62223,-37.250125 41.18984,-58.3769432 0,0 6.60375,2.0432123 -0.0592,11.2114972 0,0 11.74769,-14.4293053 18.92454,-19.8896777 6.92531,-5.268992 2.05115,11.4043694 -6.74034,23.3116017 0,0 11.60042,-8.46386 19.11815,-10.7077411 0,0 11.49815,2.3491981 -40.29791,47.5297201 -4.42849,3.862869 29.53484,-18.878272 37.83651,-17.908761 0,0 9.97809,5.721033 -16.07543,26.009682 -2.87258,2.236965 18.24166,-9.066152 19.84437,-1.735163 1.15914,5.302093 -1.88633,8.686631 -23.14226,20.697525 0,0 13.11029,-0.726354 17.01005,3.965675 2.13742,2.571661 -8.51865,9.161235 -15.16845,17.008214 0,0 5.96985,9.94175 3.4174,15.02493 0,0 6.41332,11.75862 -6.22023,11.02253 0,0 7.85031,8.20656 0.58216,9.82202 0,0 4.95371,7.19186 -3.75209,8.14013 0,0 16.29656,18.00063 -22.17178,4.99222 0,0 15.44017,13.25828 17.61816,19.85093 1.6028,4.85158 -15.8242,-2.9541 -15.8242,-2.9541 0,0 12.69083,12.13239 7.62314,13.53171 l -39.88615,6.78822 -9.97025,-67.45387 13.48877,-50.48264 z"
           id="path7651"
           sodipodi:nodetypes="cccsccscssssccccccscccccc" />
        <path
           style="display:inline;fill:#045a91;fill-opacity:1;stroke:none;stroke-width:1px;stroke-linecap:butt;stroke-linejoin:miter;stroke-opacity:1"
           d="m 202.92597,193.92174 c 0,0 28.35537,6.06511 22.83941,9.25501 0,0 25.29533,6.65246 22.47767,9.04018 0,0 -96.71959,-18.75717 -100.01949,-20.43338 l 0.0586,-6.46927 z"
           id="path17400" />
        <path
           style="display:inline;fill:#045a91;fill-opacity:1;stroke:none;stroke-width:1px;stroke-linecap:butt;stroke-linejoin:miter;stroke-opacity:1"
           d="m 152.18405,202.42234 c 0,0 40.46346,10.71544 40.64316,10.63904 22.50247,6.68152 25.68489,-0.29417 25.68489,-0.29417 16.61961,3.92098 21.26158,0.79122 21.26158,0.79122 l -85.01245,-15.96859 z"
           id="path25711" />
        <path
           style="display:inline;fill:#045a91;fill-opacity:1;stroke:none;stroke-width:1px;stroke-linecap:butt;stroke-linejoin:miter;stroke-opacity:1"
           d="m 112.42801,88.052399 -10.5709,18.422581 c 0,0 -3.27155,0.9397 -7.099745,2.72431 0,0 3.078058,-5.42201 2.300364,-8.58445 0,0 -0.709649,-1.172477 -4.005971,-2.635679 0,0 2.069479,-19.937896 -13.4787,7.657389 0,0 4.946931,-32.515629 -9.331629,-15.126116 0,0 -8.629787,-14.980762 -9.370426,15.669126 0,0 -15.359609,-32.059589 -10.717092,1.16965 0,0 -26.371959,-49.31201 -22.496102,-53.446197 0,0 2.326715,-4.074218 12.347052,15.995116 0,0 0.400485,5.173708 5.327538,-0.849922 4.927053,-6.02363 -1.945594,-36.283192 1.74933,-34.894331 0,0 10.40727,4.116128 11.862613,30.51605 0,0 2.026078,-25.552122 5.42703,-24.952995 3.043548,0.536164 4.910206,3.399475 8.364195,13.70819 0,0 3.971425,-11.828007 12.648815,7.110249 0,0 6.700817,-11.185458 11.946744,4.817762 0,0 8.765154,-5.300763 10.053834,8.183699 0,0 18.46345,-5.609051 -1.67073,18.823501 l 11.40775,-8.153705 -13.17615,19.963023"
           id="path28185"
           sodipodi:nodetypes="ccccccccccccccsccccccc" />
        <path
           style="display:inline;fill:#045a91;fill-opacity:1;stroke:none;stroke-width:1px;stroke-linecap:butt;stroke-linejoin:miter;stroke-opacity:1"
           d="m 40.004861,69.898129 c 0,0 -8.224556,-22.92609 -5.433926,-28.16722 0,0 9.106865,0.581519 12.812809,24.809528 0,0 -4.830174,15.58462 -7.378883,3.357692 z"
           id="path3248" />
        <path
           style="display:inline;fill:#ee3f21;fill-opacity:1;stroke:none;stroke-width:1px;stroke-linecap:butt;stroke-linejoin:miter;stroke-opacity:1"
           d="m 85.290916,165.50766 c 0,0 -6.095659,-18.63065 -15.308047,-23.92142 0,0 -16.470883,-20.188 -19.828958,-34.23703 0,0 -6.165592,-37.295292 10.717092,-1.16965 v 0 c 0,0 -3.245441,-34.852791 9.585853,-17.28782 0,0 16.796717,-23.294589 9.739401,14.36627 0,0 14.622692,-29.081701 14.47241,-7.096312 0,0 8.037353,0.604785 1.40985,12.122792 l 7.867313,-4.11484 -2.57333,61.69286 z"
           id="path4319"
           sodipodi:nodetypes="cccscccccccc" />
        <path
           style="display:inline;fill:#ff0000;stroke:none;stroke-width:1px;stroke-linecap:butt;stroke-linejoin:miter;stroke-opacity:1"
           d="m 57.831224,179.813 c 0,0 -1.899618,-5.59631 -12.349676,-1.57885 0,0 -4.049122,-6.34241 5.319201,-12.31794 0,0 14.113111,-8.20325 34.490167,-0.40855"
           id="path2217"
           sodipodi:nodetypes="cccc" />
        <path
           style="display:inline;fill:#ff0000;stroke:none;stroke-width:1px;stroke-linecap:butt;stroke-linejoin:miter;stroke-opacity:1"
           d="m 85.290916,165.50766 -13.066422,4.40525 c 0,0 6.003859,1.61734 1.606024,21.30393"
           id="path3089"
           sodipodi:nodetypes="ccc" />
        <path
           style="display:inline;fill:#ff0000;stroke:none;stroke-width:1px;stroke-linecap:butt;stroke-linejoin:miter;stroke-opacity:1"
           d="m 85.290916,165.50766 c 0,0 10.044414,32.7325 5.660164,28.6662 -3.13548,-2.9081 -10.088702,-3.96407 -18.850477,-1.18123"
           id="path3126"
           sodipodi:nodetypes="csc" />
        <g
           id="g13607"
           style="display:inline">
          <ellipse
             style="display:inline;fill:#cccccc;fill-opacity:0.45098;stroke:none;stroke-width:0;stroke-linejoin:round"
             id="path13597-36"
             cx="64.668839"
             cy="171.90785"
             rx="1.6333321"
             ry="1.5451554" />
        </g>
        <path
           style="display:inline;fill:#ff0000;stroke:none;stroke-width:1px;stroke-linecap:butt;stroke-linejoin:miter;stroke-opacity:1"
           d="m 91.875033,164.40279 c 0,0 10.846477,-11.12449 6.447265,-32.12123 -4.399214,-20.99674 12.181312,-42.251239 12.181312,-42.251239 0,0 11.28675,-24.157457 14.44597,-27.208215 3.15922,-3.050757 -1.02357,22.656611 -5.12472,26.265493 -4.10114,3.608883 -13.90761,19.128711 -13.90761,19.128711 l -3.92051,55.66566 z"
           id="path3752" />
        <path
           style="display:inline;fill:#ff0000;stroke:none;stroke-width:1.02047px;stroke-linecap:butt;stroke-linejoin:miter;stroke-opacity:1"
           d="m 120.27695,88.176321 c 0,0 16.09061,-8.164493 -0.16074,16.126199 -16.25135,24.29071 -16.21089,24.20355 -16.21089,24.20355 l -0.17801,-22.6218 z"
           id="path3820" />
        <path
           style="display:inline;fill:#ff0000;stroke:none;stroke-width:1px;stroke-linecap:butt;stroke-linejoin:miter;stroke-opacity:1"
           d="m 118.36285,105.66542 c 0,0 16.42461,-3.22033 -0.0349,13.98114 -16.45954,17.20146 -14.2891,14.99041 -14.2891,14.99041 l 0.097,-15.9606 z"
           id="path3822"
           sodipodi:nodetypes="cscccc" />
        <path
           style="display:inline;fill:#ff0000;stroke:none;stroke-width:1px;stroke-linecap:butt;stroke-linejoin:miter;stroke-opacity:1"
           d="m 103.9215,139.15955 c 0,0 -0.69018,0.42307 13.75596,-6.6837 14.44614,-7.10678 -0.68982,-12.08423 -0.68982,-12.08423 l -14.65535,14.24263 z"
           id="path3824"
           sodipodi:nodetypes="csc" />
        <path
           style="display:inline;fill:#ff0000;stroke:none;stroke-width:1px;stroke-linecap:butt;stroke-linejoin:miter;stroke-opacity:1"
           d="m 115.60433,132.35601 c 0,0 22.90664,8.60663 5.11013,14.09331 -17.79651,5.48668 -20.63063,5.85269 -20.63063,5.85269"
           id="path3826"
           sodipodi:nodetypes="csc" />
        <path
           style="display:inline;fill:#ff0000;stroke:none;stroke-width:1px;stroke-linecap:butt;stroke-linejoin:miter;stroke-opacity:1"
           d="m 118.56706,145.40937 c 0,0 12.66953,9.552 0.89756,12.33186 -11.77198,2.77986 -18.74987,5.48152 -18.74987,5.48152"
           id="path3828"
           sodipodi:nodetypes="csc" />
        <path
           style="display:inline;fill:#ff0000;stroke:none;stroke-width:1px;stroke-linecap:butt;stroke-linejoin:miter;stroke-opacity:1"
           d="m 119.09024,157.22524 c 2.0316,2.04234 26.16181,11.85753 4.0605,15.15855 -22.10132,3.30102 -31.275707,-7.981 -31.275707,-7.981"
           id="path3830"
           sodipodi:nodetypes="csc" />
        <path
           style="display:inline;fill:#ff0000;stroke:none;stroke-width:1px;stroke-linecap:butt;stroke-linejoin:miter;stroke-opacity:1"
           d="m 117.00201,132.88111 -7.61716,0.33928 -8.34028,8.99282 1.71874,10.14603"
           id="path5394" />
        <path
           style="display:inline;fill:#ff0000;stroke:none;stroke-width:1px;stroke-linecap:butt;stroke-linejoin:miter;stroke-opacity:1"
           d="m 101.99674,163.88197 -1.91291,-11.57996 20.93417,-6.85492"
           id="path5924"
           sodipodi:nodetypes="ccc" />
        <path
           style="display:inline;fill:#ff0000;stroke:none;stroke-width:1px;stroke-linecap:butt;stroke-linejoin:miter;stroke-opacity:1"
           d="m 151.27711,197.47797 89.80476,17.04138 c 0,0 6.97506,0.39719 7.01678,-2.1576 0.0361,-2.20813 -99.87509,-20.5782 -99.87509,-20.5782 z"
           id="path6663"
           sodipodi:nodetypes="ccscc" />
        <path
           style="display:inline;fill:#ff0000;stroke:none;stroke-width:1.03713px;stroke-linecap:butt;stroke-linejoin:miter;stroke-opacity:1"
           d="m 90.976141,194.1655 c 0,0 22.252779,16.73838 41.359119,14.53927 0,0 -2.6486,-20.65208 -14.16171,-28.2657 l -26.405003,-16.03628 -6.936775,1.12802 z"
           id="path25286"
           sodipodi:nodetypes="cccccc" />
        <path
           style="display:inline;fill:#ff0000;fill-opacity:1;stroke:none;stroke-width:1px;stroke-linecap:butt;stroke-linejoin:miter;stroke-opacity:1"
           d="m 114.04294,205.94512 c 0,0 16.9563,11.06855 21.16574,8.64882 0,0 -1.90231,-4.71499 3.42511,-4.92149 0,0 -4.35338,-4.57086 -8.89979,-6.02254 z"
           id="path25547" />
        <path
           style="display:inline;fill:#ff0000;fill-opacity:1;stroke:none;stroke-width:1px;stroke-linecap:butt;stroke-linejoin:miter;stroke-opacity:1"
           d="m 145.95246,205.88037 c 0,0 0.75678,3.30488 -0.27436,4.73865 0,0 -4.12162,0.35939 -7.04431,-0.94657 0,0 -8.89979,-6.02254 -8.89979,-6.02254 0,0 -1.88306,-12.45081 -6.93924,-18.27471 0,0 8.74923,-1.88648 13.78173,3.16686 0,0 12.19807,10.80776 9.37597,17.33831 z"
           id="path28532" />
        <path
           style="display:inline;fill:#803300;stroke:none;stroke-width:1px;stroke-linecap:butt;stroke-linejoin:miter;stroke-opacity:1"
           d="m 145.03645,210.54601 c 3.4601,1.3309 1.0259,-1.57834 1.0259,-1.57834 z"
           id="path33134" />
        <path
           style="display:inline;fill:#803300;stroke:none;stroke-width:1px;stroke-linecap:butt;stroke-linejoin:miter;stroke-opacity:1"
           d="m 133.93836,214.91149 c 3.4601,1.3309 1.0259,-1.57834 1.0259,-1.57834 z"
           id="path33134-3" />
        <path
           style="display:inline;fill:#ff0000;stroke:none;stroke-width:1px;stroke-linecap:butt;stroke-linejoin:miter;stroke-opacity:1"
           d="m 119.53258,187.83043 c 0,0 21.48463,-6.56318 26.41988,18.04994 0,0 7.24285,-2.99468 13.64881,0.78004 0,0 30.21088,8.25007 33.76211,6.82433 3.94244,-1.58281 -27.02701,-9.4295 -34.324,-10.39256 0,0 -2.90741,-7.65242 -7.76227,-5.61421 0,0 3.08436,-5.12659 0.0154,-5.4105 0,0 -0.80839,-1.75227 -2.31893,-4.89977 0,0 50.78886,8.93027 51.57517,6.14031 1.11178,-3.94477 -34.29847,-8.93396 -41.58685,-9.6999 0,0 -23.19721,3.50353 -35.40105,-11.1725 l -22.18835,-6.5731 -5.084286,13.40643 23.460536,12.63871 z"
           id="path33589"
           sodipodi:nodetypes="cccsccccscccccc" />
        <path
           style="display:inline;opacity:1;fill:#cccccc;stroke:none;stroke-width:1px;stroke-linecap:butt;stroke-linejoin:miter;stroke-opacity:1"
           d="m 76.904632,174.85958 c 0,0 -2.689169,-16.50404 -18.813008,-4.6882 -0.220914,0.16189 -0.610991,9.84794 1.637931,9.95079 0,0 9.334141,1.02893 12.371048,12.87046 0,0 1.680595,-1.52166 1.729915,-1.77579 0.119086,0.37948 4.105951,-12.03463 3.074114,-16.35726 z"
           id="path11311-5"
           sodipodi:nodetypes="cscscc" />
        <path
           style="display:inline;opacity:1;fill:#333333;stroke:none;stroke-width:1px;stroke-linecap:butt;stroke-linejoin:miter;stroke-opacity:1"
           d="m 58.271432,187.29632 c -5.271436,3.66035 -3.099686,7.21179 -3.099686,7.21179 8.05459,2.60913 16.928857,-1.51548 16.928857,-1.51548 0,0 -2.665797,-12.19515 -14.269379,-13.17963"
           id="path1017-3"
           sodipodi:nodetypes="cccc" />
        <path
           style="display:inline;opacity:1;fill:#333333;stroke:none;stroke-width:1px;stroke-linecap:butt;stroke-linejoin:miter;stroke-opacity:1"
           d="m 45.746154,178.20032 c -4.545721,1.84946 -6.984079,18.78123 13.635739,24.43878 0,0 -13.855018,-11.32332 -1.591949,-15.97097 5.002794,-1.89604 3.422926,-14.76055 -12.04379,-8.46781 z"
           id="path1015-7"
           sodipodi:nodetypes="scss" />
        <ellipse
           style="opacity:1;fill:#808080;fill-opacity:0.45098;stroke:#000000;stroke-width:0.291894;stroke-linejoin:round;stroke-miterlimit:4;stroke-dasharray:none;stroke-opacity:1"
           id="path13597"
           cx="63.793846"
           cy="172.4265"
           rx="2.4174569"
           ry="2.2237082"
           inkscape:transform-center-x="3.9878272"
           inkscape:transform-center-y="-0.44359426" />
        <ellipse
           style="display:inline;fill:#000000;fill-opacity:0.45098;stroke:#000000;stroke-width:0.884484;stroke-linejoin:round;stroke-miterlimit:4;stroke-dasharray:none;stroke-opacity:1"
           id="path13597-3"
           cx="32.911877"
           cy="180.1911"
           rx="0.42445472"
           ry="0.35562631"
           transform="matrix(0.99007837,-0.1405163,0.17072958,0.98531792,0,0)"
           inkscape:transform-center-x="0.010990089"
           inkscape:transform-center-y="-0.010596212" />
        <ellipse
           style="fill:#cccccc;fill-opacity:0.45098;stroke:none;stroke-width:0;stroke-linejoin:round"
           id="path13599"
           cx="64.752579"
           cy="173.67026"
           rx="0.025642818"
           ry="0.10079301" />
      </g>
    </g>
  </g>
</svg>
